<svg xmlns="http://www.w3.org/2000/svg" xmlns:xlink="http://www.w3.org/1999/xlink" width="213" zoomAndPan="magnify" viewBox="0 0 159.75 55.5" height="74" preserveAspectRatio="xMidYMid meet" version="1.0"><defs><g/><clipPath id="cfcb4f630d"><path d="M 73.53125 19.605469 L 89.09375 19.605469 L 89.09375 35.171875 L 73.53125 35.171875 Z M 73.53125 19.605469 " clip-rule="nonzero"/></clipPath></defs><g clip-path="url(#cfcb4f630d)"><path stroke-linecap="butt" transform="matrix(0.0144101, 0, 0, 0.0144101, 81.313539, 27.388765)" fill="none" stroke-linejoin="miter" d="M 369.948048 49.465072 C 369.948048 49.465072 369.948048 -49.478049 369.948048 -49.478049 C 369.948048 -57.339283 363.713276 -63.845132 355.580965 -63.845132 C 355.580965 -63.845132 297.841555 -63.845132 297.841555 -63.845132 C 291.335706 -63.845132 285.643088 -68.182365 284.016626 -74.417137 C 277.2397 -100.71161 266.667695 -125.379621 253.38492 -148.150092 C 250.131995 -153.571633 250.945226 -160.890713 255.553536 -165.499023 C 255.553536 -165.499023 296.48617 -206.431656 296.48617 -206.431656 C 302.178787 -211.853197 302.178787 -221.069817 296.48617 -226.762435 C 296.48617 -226.762435 226.548293 -296.700312 226.548293 -296.700312 C 221.126752 -302.121852 211.910132 -302.121852 206.488591 -296.700312 C 206.488591 -296.700312 165.284881 -255.496601 165.284881 -255.496601 C 160.676571 -250.888291 153.628568 -250.07506 147.93595 -253.327985 C 125.165479 -266.61076 100.497468 -276.911687 74.474072 -283.959691 C 68.2393 -285.586153 63.902067 -291.278771 63.902067 -297.78462 C 63.902067 -297.78462 63.902067 -355.795107 63.902067 -355.795107 C 63.902067 -363.656341 57.396218 -369.891113 49.534984 -369.891113 C 49.534984 -369.891113 -49.408137 -369.891113 -49.408137 -369.891113 C -57.269371 -369.891113 -63.77522 -363.656341 -63.77522 -355.795107 C -63.77522 -355.795107 -63.77522 -297.78462 -63.77522 -297.78462 C -63.77522 -291.278771 -68.112453 -285.586153 -74.618302 -283.959691 C -100.641698 -276.911687 -125.309708 -266.61076 -148.08018 -253.327985 C -153.501721 -250.07506 -160.820801 -250.888291 -165.429111 -255.496601 C -165.429111 -255.496601 -206.361744 -296.700312 -206.361744 -296.700312 C -212.054362 -302.121852 -220.999904 -302.121852 -226.692522 -296.700312 C -226.692522 -296.700312 -296.630399 -226.762435 -296.630399 -226.762435 C -302.323017 -221.069817 -302.323017 -211.853197 -296.630399 -206.431656 C -296.630399 -206.431656 -255.697766 -165.499023 -255.697766 -165.499023 C -251.089456 -160.890713 -250.276225 -153.571633 -253.52915 -148.150092 C -266.811925 -125.379621 -277.112852 -100.71161 -283.889778 -74.417137 C -285.516241 -68.182365 -291.208858 -63.845132 -297.714707 -63.845132 C -297.714707 -63.845132 -355.725195 -63.845132 -355.725195 -63.845132 C -363.586429 -63.845132 -370.092278 -57.339283 -370.092278 -49.478049 C -370.092278 -49.478049 -370.092278 49.465072 -370.092278 49.465072 C -370.092278 57.326306 -363.586429 63.832155 -355.725195 63.832155 C -355.725195 63.832155 -297.985785 63.832155 -297.985785 63.832155 C -291.479936 63.832155 -285.787318 68.169388 -283.889778 74.675237 C -277.112852 100.698633 -266.811925 125.366644 -253.52915 148.137115 C -250.276225 153.829733 -251.089456 160.877736 -255.697766 165.486046 C -255.697766 165.486046 -296.630399 206.418679 -296.630399 206.418679 C -302.323017 211.84022 -302.323017 221.05684 -296.630399 226.749457 C -296.630399 226.749457 -226.692522 296.687334 -226.692522 296.687334 C -220.999904 302.108875 -212.054362 302.108875 -206.361744 296.687334 C -206.361744 296.687334 -165.700188 255.754701 -165.700188 255.754701 C -160.820801 251.146391 -153.772798 250.33316 -148.08018 253.586085 C -125.309708 266.86886 -100.641698 277.169787 -74.618302 284.217791 C -68.112453 285.844253 -63.77522 291.536871 -63.77522 298.04272 C -63.77522 298.04272 -63.77522 355.78213 -63.77522 355.78213 C -63.77522 363.643364 -57.269371 369.878136 -49.408137 369.878136 C -49.408137 369.878136 49.534984 369.878136 49.534984 369.878136 C 57.396218 369.878136 63.902067 363.643364 63.902067 355.78213 C 63.902067 355.78213 63.902067 298.04272 63.902067 298.04272 C 63.902067 291.536871 68.2393 285.844253 74.474072 284.217791 C 100.768545 277.169787 125.436556 266.86886 148.207027 253.586085 C 153.899645 250.33316 160.947648 251.146391 165.555958 255.754701 C 165.555958 255.754701 206.488591 296.687334 206.488591 296.687334 C 211.910132 302.108875 221.126752 302.108875 226.548293 296.687334 C 226.548293 296.687334 296.48617 226.749457 296.48617 226.749457 C 302.178787 221.05684 302.178787 211.84022 296.48617 206.418679 C 296.48617 206.418679 255.824613 165.486046 255.824613 165.486046 C 251.216303 160.877736 250.403072 153.829733 253.655997 148.137115 C 266.938772 125.366644 277.2397 100.698633 284.016626 74.675237 C 285.643088 68.169388 291.335706 63.832155 297.841555 63.832155 C 297.841555 63.832155 355.580965 63.832155 355.580965 63.832155 C 363.713276 63.832155 369.948048 57.326306 369.948048 49.465072 Z M 369.948048 49.465072 " stroke="#8b0000" stroke-width="50" stroke-opacity="1" stroke-miterlimit="10"/><path stroke-linecap="butt" transform="matrix(0.0144101, 0, 0, 0.0144101, 81.313539, 27.390939)" fill="none" stroke-linejoin="miter" d="M -0.0721149 129.281932 C -71.365377 129.281932 -129.104787 71.271445 -129.104787 -0.0218173 C -129.104787 -71.315079 -71.365377 -129.325567 -0.0721149 -129.325567 C 71.492224 -129.325567 129.231634 -71.315079 129.231634 -0.0218173 C 129.231634 71.271445 71.492224 129.281932 -0.0721149 129.281932 Z M -0.0721149 129.281932 " stroke="#000000" stroke-width="50" stroke-opacity="1" stroke-miterlimit="10"/></g><g fill="#8b0000" fill-opacity="1"><g transform="translate(39.157372, 32.995265)"><g><path d="M 5.40625 -21.453125 C 6.84375 -21.566406 8.132812 -21.625 9.28125 -21.625 C 12.050781 -21.625 14.007812 -21.289062 15.15625 -20.625 C 16.800781 -19.644531 17.625 -17.820312 17.625 -15.15625 C 17.625 -13.8125 17.382812 -12.640625 16.90625 -11.640625 C 16.3125 -10.347656 15.429688 -9.457031 14.265625 -8.96875 C 13.109375 -8.476562 11.3125 -8.234375 8.875 -8.234375 L 6.484375 -8.234375 L 6.40625 -5.046875 C 6.363281 -3.253906 6.320312 -2.1875 6.28125 -1.84375 C 6.25 -1.5 6.148438 -1.171875 5.984375 -0.859375 C 5.523438 -0.046875 4.953125 0.359375 4.265625 0.359375 C 4.191406 0.359375 4.128906 0.359375 4.078125 0.359375 C 3.296875 0.265625 2.6875 -0.222656 2.25 -1.109375 L 1.859375 -1.9375 L 1.890625 -18.796875 L 1.5 -19.703125 C 1.238281 -20.273438 1.097656 -20.644531 1.078125 -20.8125 C 1.078125 -20.882812 1.117188 -20.9375 1.203125 -20.96875 C 1.285156 -21 1.492188 -21.039062 1.828125 -21.09375 C 2.160156 -21.144531 2.585938 -21.191406 3.109375 -21.234375 C 3.640625 -21.285156 4.40625 -21.359375 5.40625 -21.453125 Z M 10.53125 -17.46875 C 9.738281 -17.539062 9.285156 -17.578125 9.171875 -17.578125 C 9.023438 -17.535156 8.59375 -17.515625 7.875 -17.515625 C 7.09375 -17.460938 6.6875 -17.378906 6.65625 -17.265625 C 6.613281 -17.171875 6.566406 -16.25 6.515625 -14.5 L 6.453125 -11.859375 L 7.265625 -11.859375 C 7.960938 -11.859375 8.789062 -11.914062 9.75 -12.03125 C 10.71875 -12.15625 11.335938 -12.265625 11.609375 -12.359375 C 12.128906 -12.597656 12.503906 -12.910156 12.734375 -13.296875 C 12.960938 -13.691406 13.078125 -14.285156 13.078125 -15.078125 C 13.078125 -15.910156 12.898438 -16.488281 12.546875 -16.8125 C 12.203125 -17.132812 11.53125 -17.351562 10.53125 -17.46875 Z M 10.53125 -17.46875 "/></g></g></g><g fill="#8b0000" fill-opacity="1"><g transform="translate(57.097531, 32.995265)"><g><path d="M 7.015625 -22.09375 C 7.441406 -22.1875 8.039062 -22.234375 8.8125 -22.234375 C 9.050781 -22.234375 9.507812 -22.222656 10.1875 -22.203125 C 10.863281 -22.179688 11.515625 -22.097656 12.140625 -21.953125 C 12.765625 -21.785156 13.351562 -21.550781 13.90625 -21.25 C 14.46875 -20.957031 14.832031 -20.691406 15 -20.453125 C 15.21875 -20.140625 15.351562 -19.6875 15.40625 -19.09375 C 15.40625 -19.019531 15.40625 -18.957031 15.40625 -18.90625 C 15.40625 -18.382812 15.304688 -17.976562 15.109375 -17.6875 C 14.847656 -17.28125 14.632812 -17.070312 14.46875 -17.0625 C 14.300781 -17.050781 14.207031 -17.046875 14.1875 -17.046875 C 13.851562 -17.046875 13.300781 -17.203125 12.53125 -17.515625 C 11.382812 -17.960938 10.566406 -18.21875 10.078125 -18.28125 C 9.585938 -18.34375 9.238281 -18.375 9.03125 -18.375 C 8.5 -18.375 7.992188 -18.289062 7.515625 -18.125 C 6.640625 -17.832031 6.203125 -17.195312 6.203125 -16.21875 C 6.203125 -15.90625 6.226562 -15.679688 6.28125 -15.546875 C 6.34375 -15.421875 6.503906 -15.21875 6.765625 -14.9375 C 7.191406 -14.550781 8.195312 -14.050781 9.78125 -13.4375 C 11.132812 -12.882812 12.132812 -12.429688 12.78125 -12.078125 C 13.425781 -11.734375 13.988281 -11.320312 14.46875 -10.84375 C 15.28125 -10.039062 15.796875 -8.96875 16.015625 -7.625 C 16.054688 -7.21875 16.078125 -6.828125 16.078125 -6.453125 C 16.078125 -4.753906 15.53125 -3.304688 14.4375 -2.109375 C 13.664062 -1.296875 12.640625 -0.710938 11.359375 -0.359375 C 10.710938 -0.191406 9.617188 -0.109375 8.078125 -0.109375 C 6.535156 -0.109375 5.40625 -0.191406 4.6875 -0.359375 C 3.257812 -0.742188 2.222656 -1.269531 1.578125 -1.9375 C 1.335938 -2.175781 1.191406 -2.363281 1.140625 -2.5 C 1.097656 -2.644531 1.078125 -2.929688 1.078125 -3.359375 C 1.078125 -3.796875 1.171875 -4.398438 1.359375 -5.171875 C 1.546875 -5.953125 1.675781 -6.34375 1.75 -6.34375 C 1.820312 -6.34375 2.359375 -6.09375 3.359375 -5.59375 C 4.484375 -5.019531 5.382812 -4.625 6.0625 -4.40625 C 6.75 -4.1875 7.472656 -4.054688 8.234375 -4.015625 C 8.398438 -4.015625 8.554688 -4.015625 8.703125 -4.015625 C 9.296875 -4.015625 9.773438 -4.082031 10.140625 -4.21875 C 10.785156 -4.507812 11.132812 -4.863281 11.1875 -5.28125 C 11.25 -5.695312 11.28125 -5.96875 11.28125 -6.09375 C 11.28125 -6.664062 11.066406 -7.15625 10.640625 -7.5625 C 10.273438 -7.863281 9.890625 -8.125 9.484375 -8.34375 C 9.078125 -8.5625 8.398438 -8.847656 7.453125 -9.203125 C 5.160156 -10.066406 3.59375 -10.9375 2.75 -11.8125 C 2.207031 -12.414062 1.835938 -12.984375 1.640625 -13.515625 C 1.453125 -14.054688 1.359375 -14.816406 1.359375 -15.796875 C 1.359375 -16.515625 1.375 -16.988281 1.40625 -17.21875 C 1.445312 -17.457031 1.578125 -17.804688 1.796875 -18.265625 C 2.242188 -19.148438 2.945312 -19.941406 3.90625 -20.640625 C 4.863281 -21.347656 5.898438 -21.832031 7.015625 -22.09375 Z M 7.015625 -22.09375 "/></g></g></g><g fill="#8b0000" fill-opacity="1"><g transform="translate(74.249901, 32.995265)"><g/></g></g><g fill="#8b0000" fill-opacity="1"><g transform="translate(83.058846, 32.995265)"><g><path d="M 10.203125 -21.703125 C 10.296875 -21.703125 10.441406 -21.710938 10.640625 -21.734375 C 13.023438 -21.828125 14.707031 -21.875 15.6875 -21.875 C 16.09375 -21.875 16.484375 -21.859375 16.859375 -21.828125 C 17.242188 -21.796875 17.566406 -21.539062 17.828125 -21.0625 C 17.859375 -21.007812 17.875 -20.984375 17.875 -20.984375 C 18.082031 -20.578125 18.1875 -20.148438 18.1875 -19.703125 C 18.1875 -19.554688 18.15625 -19.296875 18.09375 -18.921875 C 18.039062 -18.554688 17.820312 -18.21875 17.4375 -17.90625 C 17.25 -17.757812 17.007812 -17.664062 16.71875 -17.625 C 16.4375 -17.59375 15.6875 -17.578125 14.46875 -17.578125 L 11.921875 -17.578125 L 11.8125 -16.359375 C 11.738281 -15.617188 11.679688 -12.972656 11.640625 -8.421875 L 11.53125 -1.6875 L 11.140625 -1.03125 C 10.609375 -0.175781 10 0.25 9.3125 0.25 C 9.3125 0.25 9.128906 0.242188 8.765625 0.234375 C 8.410156 0.222656 7.972656 -0.210938 7.453125 -1.078125 L 7.0625 -1.71875 L 7.015625 -9.53125 C 6.941406 -14.726562 6.894531 -17.34375 6.875 -17.375 C 6.851562 -17.394531 6.78125 -17.40625 6.65625 -17.40625 C 6.375 -17.40625 5.847656 -17.367188 5.078125 -17.296875 C 4.609375 -17.273438 4.191406 -17.265625 3.828125 -17.265625 C 3.472656 -17.265625 3.128906 -17.285156 2.796875 -17.328125 C 2.460938 -17.378906 2.113281 -17.5625 1.75 -17.875 C 1.445312 -18.1875 1.195312 -18.566406 1 -19.015625 C 0.832031 -19.398438 0.71875 -19.769531 0.65625 -20.125 C 0.601562 -20.476562 0.578125 -20.726562 0.578125 -20.875 C 0.578125 -21.019531 0.597656 -21.101562 0.640625 -21.125 C 0.898438 -21.269531 4.085938 -21.460938 10.203125 -21.703125 Z M 10.203125 -21.703125 "/></g></g></g><g fill="#8b0000" fill-opacity="1"><g transform="translate(101.500333, 32.995265)"><g><path d="M 8.5625 -21.84375 C 10.78125 -21.914062 12.425781 -21.953125 13.5 -21.953125 C 14.03125 -21.953125 14.523438 -21.929688 14.984375 -21.890625 C 15.453125 -21.859375 15.816406 -21.648438 16.078125 -21.265625 C 16.242188 -21.003906 16.335938 -20.738281 16.359375 -20.46875 C 16.390625 -20.195312 16.40625 -20.007812 16.40625 -19.90625 C 16.40625 -19.550781 16.34375 -19.253906 16.21875 -19.015625 C 16.125 -18.773438 16.03125 -18.601562 15.9375 -18.5 C 15.84375 -18.394531 15.578125 -18.296875 15.140625 -18.203125 C 14.710938 -18.117188 14.207031 -18.0625 13.625 -18.03125 C 13.039062 -18 12.09375 -17.96875 10.78125 -17.9375 C 7.988281 -17.84375 6.578125 -17.785156 6.546875 -17.765625 C 6.503906 -17.742188 6.453125 -17.132812 6.390625 -15.9375 C 6.328125 -14.738281 6.296875 -13.953125 6.296875 -13.578125 C 6.296875 -13.304688 6.3125 -13.160156 6.34375 -13.140625 C 6.34375 -13.097656 6.445312 -13.078125 6.65625 -13.078125 C 6.988281 -13.078125 7.585938 -13.132812 8.453125 -13.25 C 9.953125 -13.4375 11.238281 -13.53125 12.3125 -13.53125 C 13.25 -13.53125 13.8125 -13.519531 14 -13.5 C 14.195312 -13.476562 14.390625 -13.367188 14.578125 -13.171875 C 14.816406 -12.941406 14.957031 -12.523438 15 -11.921875 C 15 -11.804688 15 -11.703125 15 -11.609375 C 15 -10.835938 14.785156 -10.3125 14.359375 -10.03125 C 14.046875 -9.832031 11.726562 -9.664062 7.40625 -9.53125 C 6.769531 -9.5 6.414062 -9.4375 6.34375 -9.34375 C 6.269531 -9.25 6.234375 -8.378906 6.234375 -6.734375 L 6.234375 -4.265625 L 7.453125 -4.265625 C 8.378906 -4.265625 9.273438 -4.300781 10.140625 -4.375 C 12.191406 -4.5625 13.625 -4.65625 14.4375 -4.65625 C 14.71875 -4.65625 14.929688 -4.644531 15.078125 -4.625 C 15.671875 -4.5 16.101562 -4.195312 16.375 -3.71875 C 16.65625 -3.25 16.796875 -2.820312 16.796875 -2.4375 C 16.796875 -2.25 16.769531 -2.066406 16.71875 -1.890625 C 16.53125 -1.203125 16.066406 -0.785156 15.328125 -0.640625 C 14.921875 -0.546875 12.820312 -0.476562 9.03125 -0.4375 C 8.90625 -0.40625 8.75 -0.390625 8.5625 -0.390625 C 7.488281 -0.367188 6.566406 -0.359375 5.796875 -0.359375 C 4.484375 -0.359375 3.601562 -0.394531 3.15625 -0.46875 C 2.71875 -0.539062 2.359375 -0.863281 2.078125 -1.4375 L 1.6875 -2.21875 L 1.796875 -19.15625 L 1.390625 -20.234375 C 1.179688 -20.859375 1.078125 -21.238281 1.078125 -21.375 L 1.078125 -21.421875 C 1.191406 -21.535156 3.6875 -21.675781 8.5625 -21.84375 Z M 8.5625 -21.84375 "/></g></g></g><g fill="#8b0000" fill-opacity="1"><g transform="translate(119.368879, 32.995265)"><g><path d="M 10.453125 -22.484375 C 10.691406 -22.535156 10.992188 -22.5625 11.359375 -22.5625 C 11.710938 -22.5625 12.238281 -22.53125 12.9375 -22.46875 C 13.644531 -22.414062 14.238281 -22.316406 14.71875 -22.171875 C 15.601562 -21.929688 16.328125 -21.601562 16.890625 -21.1875 C 17.453125 -20.769531 17.78125 -20.332031 17.875 -19.875 C 17.894531 -19.78125 17.90625 -19.671875 17.90625 -19.546875 C 17.90625 -19.171875 17.820312 -18.625 17.65625 -17.90625 C 17.488281 -17.1875 17.3125 -16.828125 17.125 -16.828125 C 17.050781 -16.828125 16.847656 -16.925781 16.515625 -17.125 C 15.722656 -17.550781 14.8125 -17.847656 13.78125 -18.015625 C 12.757812 -18.179688 11.960938 -18.265625 11.390625 -18.265625 C 10.890625 -18.265625 10.4375 -18.21875 10.03125 -18.125 C 8.957031 -17.863281 8.0625 -17.347656 7.34375 -16.578125 C 6.625 -15.816406 6.132812 -14.828125 5.875 -13.609375 C 5.75 -13.035156 5.6875 -12.242188 5.6875 -11.234375 C 5.6875 -10.234375 5.75 -9.425781 5.875 -8.8125 C 6.0625 -7.851562 6.398438 -7.015625 6.890625 -6.296875 C 7.378906 -5.585938 7.972656 -5.050781 8.671875 -4.6875 C 9.648438 -4.1875 10.628906 -3.9375 11.609375 -3.9375 C 11.941406 -3.9375 12.519531 -4.015625 13.34375 -4.171875 C 14.164062 -4.328125 14.96875 -4.929688 15.75 -5.984375 C 16.039062 -6.390625 16.242188 -6.601562 16.359375 -6.625 C 16.703125 -6.625 17.082031 -6.359375 17.5 -5.828125 C 17.914062 -5.304688 18.179688 -4.738281 18.296875 -4.125 C 18.347656 -3.925781 18.375 -3.734375 18.375 -3.546875 C 18.375 -2.878906 18.0625 -2.234375 17.4375 -1.609375 C 16.820312 -0.992188 15.773438 -0.515625 14.296875 -0.171875 C 13.140625 0.0859375 12.015625 0.21875 10.921875 0.21875 C 10.109375 0.21875 9.050781 0.0976562 7.75 -0.140625 C 6.445312 -0.378906 5.25 -1.023438 4.15625 -2.078125 C 3.457031 -2.742188 2.835938 -3.640625 2.296875 -4.765625 C 1.765625 -5.890625 1.40625 -7.082031 1.21875 -8.34375 C 1.125 -9.0625 1.078125 -9.800781 1.078125 -10.5625 C 1.097656 -11.539062 1.226562 -12.75 1.46875 -14.1875 C 1.707031 -15.632812 2.207031 -16.96875 2.96875 -18.1875 C 3.800781 -19.476562 4.796875 -20.457031 5.953125 -21.125 C 7.117188 -21.789062 8.617188 -22.242188 10.453125 -22.484375 Z M 10.453125 -22.484375 "/></g></g></g><g fill="#8b0000" fill-opacity="1"><g transform="translate(138.813006, 32.995265)"><g><path d="M 2.1875 -21.484375 C 2.632812 -21.554688 3.0625 -21.59375 3.46875 -21.59375 C 3.945312 -21.59375 4.488281 -21.523438 5.09375 -21.390625 C 5.707031 -21.265625 6.144531 -21.007812 6.40625 -20.625 C 6.5 -20.457031 6.550781 -20.296875 6.5625 -20.140625 C 6.582031 -19.984375 6.59375 -19.882812 6.59375 -19.84375 C 6.59375 -19.53125 6.554688 -18.957031 6.484375 -18.125 C 6.484375 -18.09375 6.398438 -16.898438 6.234375 -14.546875 L 6.15625 -13.078125 L 6.703125 -13.171875 C 7.054688 -13.222656 8.304688 -13.25 10.453125 -13.25 C 12.628906 -13.25 13.726562 -13.3125 13.75 -13.4375 C 13.769531 -13.476562 13.78125 -13.664062 13.78125 -14 C 13.78125 -14.550781 13.742188 -15.710938 13.671875 -17.484375 C 13.609375 -19.265625 13.539062 -20.3125 13.46875 -20.625 C 13.445312 -20.75 13.4375 -20.859375 13.4375 -20.953125 C 13.4375 -21.117188 13.488281 -21.226562 13.59375 -21.28125 C 13.695312 -21.34375 14.21875 -21.4375 15.15625 -21.5625 C 15.507812 -21.582031 15.828125 -21.59375 16.109375 -21.59375 C 16.640625 -21.59375 17.082031 -21.546875 17.4375 -21.453125 C 18.039062 -21.285156 18.472656 -21.082031 18.734375 -20.84375 C 18.867188 -20.675781 18.945312 -20.550781 18.96875 -20.46875 C 19 -20.382812 19.015625 -20.296875 19.015625 -20.203125 C 19.015625 -20.078125 19.003906 -19.929688 18.984375 -19.765625 C 18.835938 -18.410156 18.734375 -16.210938 18.671875 -13.171875 C 18.617188 -10.140625 18.59375 -7.847656 18.59375 -6.296875 C 18.59375 -4.941406 18.601562 -3.796875 18.625 -2.859375 C 18.644531 -2.410156 18.65625 -2.066406 18.65625 -1.828125 C 18.65625 -1.640625 18.644531 -1.476562 18.625 -1.34375 C 18.601562 -1.207031 18.507812 -1.054688 18.34375 -0.890625 C 17.789062 -0.296875 17.109375 0 16.296875 0 C 16.222656 0 15.925781 -0.015625 15.40625 -0.046875 C 14.894531 -0.0859375 14.425781 -0.476562 14 -1.21875 L 13.6875 -1.859375 L 13.6875 -5.515625 L 13.71875 -9.171875 L 12.25 -9.28125 C 11.769531 -9.320312 11.21875 -9.34375 10.59375 -9.34375 C 9.976562 -9.34375 9.273438 -9.320312 8.484375 -9.28125 L 6.203125 -9.171875 L 6.234375 -5.4375 C 6.234375 -3.675781 6.21875 -2.59375 6.1875 -2.1875 C 6.164062 -1.78125 6.082031 -1.429688 5.9375 -1.140625 C 5.632812 -0.546875 5.25 -0.203125 4.78125 -0.109375 C 4.3125 -0.015625 3.992188 0.03125 3.828125 0.03125 C 3.304688 0.03125 2.84375 -0.132812 2.4375 -0.46875 C 2.101562 -0.78125 1.835938 -1.101562 1.640625 -1.4375 C 1.503906 -1.695312 1.425781 -2.050781 1.40625 -2.5 C 1.394531 -2.957031 1.390625 -3.628906 1.390625 -4.515625 C 1.390625 -5.367188 1.390625 -6.515625 1.390625 -7.953125 C 1.421875 -11.890625 1.457031 -13.894531 1.5 -13.96875 C 1.53125 -13.988281 1.546875 -14.097656 1.546875 -14.296875 C 1.546875 -14.742188 1.492188 -15.742188 1.390625 -17.296875 C 1.296875 -18.847656 1.210938 -19.863281 1.140625 -20.34375 C 1.097656 -20.65625 1.078125 -20.894531 1.078125 -21.0625 C 1.078125 -21.175781 1.085938 -21.242188 1.109375 -21.265625 C 1.179688 -21.335938 1.539062 -21.410156 2.1875 -21.484375 Z M 2.1875 -21.484375 "/></g></g></g></svg>